<svg xmlns="http://www.w3.org/2000/svg" width="50.829" height="41.696" viewBox="0 0 50.829 41.696"><defs><style>.a{fill:#6f707b;}</style></defs><path class="a" d="M11.913,180a11.913,11.913,0,1,0,11.913,11.913A11.927,11.927,0,0,0,11.913,180Zm0,20.848a8.935,8.935,0,1,1,8.935-8.935A8.945,8.945,0,0,1,11.913,200.848Zm0,0" transform="translate(0 -162.13)"/><path class="a" d="M79.467,255a4.467,4.467,0,1,0,4.467,4.467A4.473,4.473,0,0,0,79.467,255Zm0,5.957a1.489,1.489,0,1,1,1.489-1.489A1.491,1.491,0,0,1,79.467,260.957Zm0,0" transform="translate(-67.554 -229.685)"/><path class="a" d="M52.759,26.107v-5.26A5.963,5.963,0,0,0,46.8,14.891H43.824V7.445a1.491,1.491,0,0,1,1.489-1.489V2.978a4.473,4.473,0,0,0-4.467,4.467v7.446H34.31L30.736,2.978H33.2V0H9.376V2.978h2.978v9.5A17.874,17.874,0,0,0,5.449,16l1.9,2.3A14.892,14.892,0,0,1,31.713,29.782V34.25h6.28a8.934,8.934,0,1,0,14.766-8.143ZM15.332,11.976v-9H27.626L31.2,14.891H26.688a17.765,17.765,0,0,0-9.866-2.978q-.747,0-1.489.063Zm14.8,5.893H46.8a2.982,2.982,0,0,1,2.978,2.978v3.489a8.9,8.9,0,0,0-2.978-.511H33.669a17.886,17.886,0,0,0-3.541-5.957ZM34.441,26.8h5.708a8.908,8.908,0,0,0-2.157,4.467h-3.3V29.782A17.873,17.873,0,0,0,34.441,26.8ZM46.8,38.717a5.957,5.957,0,1,1,5.957-5.957A5.963,5.963,0,0,1,46.8,38.717Zm0,0" transform="translate(-4.908 0)"/><path class="a" d="M409.978,316.489A1.489,1.489,0,1,1,408.489,315,1.489,1.489,0,0,1,409.978,316.489Zm0,0" transform="translate(-366.595 -283.728)"/></svg>